<?xml version="1.0" encoding="UTF-8" standalone="no"?>
<!DOCTYPE svg PUBLIC "-//W3C//DTD SVG 1.1//EN" "http://www.w3.org/Graphics/SVG/1.1/DTD/svg11.dtd">
<svg width="100%" height="100%" viewBox="0 0 9584 4167" version="1.1" xmlns="http://www.w3.org/2000/svg" xmlns:xlink="http://www.w3.org/1999/xlink" xml:space="preserve" xmlns:serif="http://www.serif.com/" style="fill-rule:evenodd;clip-rule:evenodd;stroke-linejoin:round;stroke-miterlimit:2;">
    <g transform="matrix(3.848242,0,0,3.848242,182.593552,113.81876)">
        <path d="M276.709,398.152C302.237,335.027 330.72,272.027 361.282,216.188C315.661,182.303 271.855,109.235 253.856,76.861C247.392,84.205 243.196,92.663 241.293,99.545C224.337,160.766 284.695,234.695 236.08,207.684C195.574,185.176 104.364,135.887 69.573,184.877C108.538,234.942 210.451,360.904 276.709,398.152Z" style="fill:rgb(221,85,44);fill-rule:nonzero;"/>
    </g>
    <g transform="matrix(3.848242,0,0,3.848242,182.593552,113.81876)">
        <path d="M361.282,216.188C390.896,162.082 422.455,114.695 455.174,80.556C455.174,80.556 422.54,127.793 375.928,222.222C404.157,229.996 484.553,245.948 596.537,217.022C599.29,196.671 585.609,174.288 517.431,166.794C472.921,161.906 570.856,60.511 499.909,12.557C497.618,11.006 495.367,9.638 493.161,8.413C490.782,7.559 488.27,6.777 485.589,6.08C402.73,-15.541 391.245,124.959 358.18,94.755C304.749,45.947 271.024,57.351 253.856,76.861C271.855,109.235 315.661,182.303 361.282,216.188L361.282,216.188Z" style="fill:rgb(247,154,35);fill-rule:nonzero;"/>
    </g>
    <g transform="matrix(3.848242,0,0,3.848242,182.593552,113.81876)">
        <path d="M210.066,580.024C228.771,523.99 251.273,461.035 276.709,398.152C210.451,360.904 108.538,234.942 69.573,184.877C62.617,194.664 57.863,208.316 56.279,226.986C47.782,327.266 151.236,401.508 130.612,415.068C103.331,433.008 49.033,371.975 27.633,410.754C58.651,450.602 121.834,522.602 210.066,580.024L210.066,580.024Z" style="fill:rgb(210,33,40);fill-rule:nonzero;"/>
    </g>
    <g transform="matrix(3.848242,0,0,3.848242,182.593552,113.81876)">
        <path d="M496.716,363.752C444.334,345.069 551.453,294.965 586.238,241.81C590.688,235.014 595.289,226.23 596.537,217.022C484.553,245.948 404.157,229.996 375.928,222.222C351.798,271.115 323.934,332.727 294.874,407.014C325.139,419.955 448.716,467.76 623.264,468.007C652.61,391.57 546.429,381.476 496.716,363.752L496.716,363.752Z" style="fill:rgb(221,85,44);fill-rule:nonzero;"/>
    </g>
    <g transform="matrix(3.848242,0,0,3.848242,182.593552,113.81876)">
        <path d="M230.306,590.111C261.086,599.703 363.074,628.356 471.39,624.042C485.941,584.644 431.539,580.799 427.108,549.201C423.677,524.752 570.276,569.748 617.445,480.845C619.83,476.348 621.69,472.106 623.264,468.007C448.716,467.76 325.139,419.955 294.874,407.014C273.637,461.302 251.791,522.23 230.306,590.111L230.306,590.111Z" style="fill:rgb(210,33,40);fill-rule:nonzero;"/>
    </g>
    <g transform="matrix(3.848242,0,0,3.848242,182.593552,113.81876)">
        <path d="M230.306,590.111C216.475,633.804 202.83,680.481 189.585,729.81C184.887,747.3 180.244,765.115 175.666,783.322C278.472,817.26 373.139,783.4 376.348,741.435C376.374,741.103 376.312,740.855 376.332,740.536C378.779,696.087 312.158,720.726 313.735,694.002C315.319,667.083 430.043,693.846 465.522,636.13C468.242,631.705 470.015,627.776 471.39,624.042C363.074,628.356 261.086,599.703 230.306,590.111Z" style="fill:rgb(124,41,125);fill-rule:nonzero;"/>
    </g>
    <g transform="matrix(3.848242,0,0,3.848242,182.593552,113.81876)">
        <path d="M27.633,410.754C26.135,413.472 24.782,416.613 23.629,420.366C3.705,485.119 144.59,572.107 125.422,591.069C108.143,608.155 85.626,569.109 57.86,585.237C54.817,587.01 51.728,589.245 48.558,592.496C17.155,624.668 48.066,717.35 137.161,766.823C116.37,836.633 95.671,914.627 75.408,996.193C82.759,993.619 91.556,991.039 93.745,984.105C97.033,970.59 117.351,888.353 150.34,776.786C150.34,776.786 156.361,753.933 167.384,716.282C177.575,681.465 192.058,633.98 210.066,580.024C121.834,522.602 58.651,450.602 27.633,410.754Z" style="fill:rgb(124,41,125);fill-rule:nonzero;"/>
    </g>
    <g transform="matrix(96.405275,0,0,96.405275,-59036.737004,-58246.867832)">
        <g transform="matrix(12,0,0,12,643.885418,621.776042)">
            <path d="M-0.009,-0L0.303,-0.7L0.463,-0.7L0.776,-0L0.606,-0L0.35,-0.618L0.414,-0.618L0.157,-0L-0.009,-0ZM0.147,-0.15L0.19,-0.273L0.55,-0.273L0.594,-0.15L0.147,-0.15Z" style="fill:rgb(124,41,125);fill-rule:nonzero;"/>
        </g>
        <g transform="matrix(12,0,0,12,653.079523,621.776042)">
            <path d="M0.39,0.008C0.345,0.008 0.305,-0.002 0.271,-0.022C0.237,-0.042 0.21,-0.073 0.191,-0.114C0.172,-0.154 0.163,-0.206 0.163,-0.269C0.163,-0.332 0.172,-0.384 0.19,-0.425C0.208,-0.466 0.234,-0.496 0.268,-0.516C0.302,-0.536 0.343,-0.546 0.39,-0.546C0.44,-0.546 0.486,-0.534 0.526,-0.511C0.567,-0.489 0.599,-0.456 0.622,-0.415C0.646,-0.374 0.658,-0.325 0.658,-0.269C0.658,-0.213 0.646,-0.164 0.622,-0.122C0.599,-0.081 0.567,-0.049 0.526,-0.026C0.486,-0.004 0.44,0.008 0.39,0.008ZM0.072,0.194L0.072,-0.538L0.221,-0.538L0.221,-0.428L0.218,-0.268L0.228,-0.109L0.228,0.194L0.072,0.194ZM0.363,-0.12C0.389,-0.12 0.412,-0.126 0.433,-0.138C0.453,-0.15 0.47,-0.167 0.482,-0.189C0.494,-0.212 0.5,-0.238 0.5,-0.269C0.5,-0.3 0.494,-0.327 0.482,-0.349C0.47,-0.371 0.453,-0.388 0.433,-0.4C0.412,-0.412 0.389,-0.418 0.363,-0.418C0.337,-0.418 0.314,-0.412 0.293,-0.4C0.272,-0.388 0.256,-0.371 0.244,-0.349C0.232,-0.327 0.226,-0.3 0.226,-0.269C0.226,-0.238 0.232,-0.212 0.244,-0.189C0.256,-0.167 0.272,-0.15 0.293,-0.138C0.314,-0.126 0.337,-0.12 0.363,-0.12Z" style="fill:rgb(124,41,125);fill-rule:nonzero;"/>
        </g>
        <g transform="matrix(12,0,0,12,661.255669,621.776042)">
            <path d="M0.402,-0L0.402,-0.105L0.392,-0.128L0.392,-0.316C0.392,-0.35 0.382,-0.376 0.362,-0.394C0.341,-0.412 0.31,-0.422 0.268,-0.422C0.239,-0.422 0.211,-0.417 0.184,-0.408C0.156,-0.399 0.132,-0.387 0.113,-0.372L0.057,-0.481C0.086,-0.502 0.122,-0.518 0.163,-0.529C0.204,-0.54 0.246,-0.546 0.289,-0.546C0.371,-0.546 0.435,-0.526 0.48,-0.488C0.526,-0.449 0.548,-0.389 0.548,-0.307L0.548,-0L0.402,-0ZM0.238,0.008C0.196,0.008 0.16,0.001 0.13,-0.014C0.1,-0.028 0.077,-0.047 0.061,-0.072C0.045,-0.096 0.037,-0.124 0.037,-0.155C0.037,-0.187 0.045,-0.215 0.061,-0.239C0.076,-0.263 0.101,-0.282 0.135,-0.295C0.169,-0.309 0.214,-0.316 0.268,-0.316L0.411,-0.316L0.411,-0.225L0.285,-0.225C0.249,-0.225 0.223,-0.219 0.21,-0.207C0.196,-0.195 0.189,-0.18 0.189,-0.162C0.189,-0.142 0.197,-0.126 0.213,-0.115C0.228,-0.103 0.249,-0.097 0.277,-0.097C0.303,-0.097 0.326,-0.103 0.347,-0.115C0.368,-0.127 0.383,-0.146 0.392,-0.17L0.416,-0.098C0.405,-0.063 0.384,-0.037 0.354,-0.019C0.324,-0.001 0.285,0.008 0.238,0.008Z" style="fill:rgb(124,41,125);fill-rule:nonzero;"/>
        </g>
        <g transform="matrix(12,0,0,12,668.703758,621.776042)">
            <path d="M0.332,0.008C0.274,0.008 0.223,-0.004 0.177,-0.028C0.132,-0.051 0.097,-0.084 0.071,-0.126C0.045,-0.168 0.032,-0.215 0.032,-0.269C0.032,-0.323 0.045,-0.371 0.071,-0.413C0.097,-0.454 0.132,-0.487 0.177,-0.51C0.223,-0.534 0.274,-0.546 0.332,-0.546C0.389,-0.546 0.438,-0.534 0.48,-0.51C0.522,-0.487 0.553,-0.453 0.573,-0.409L0.452,-0.344C0.438,-0.369 0.42,-0.388 0.399,-0.4C0.378,-0.412 0.355,-0.418 0.331,-0.418C0.305,-0.418 0.281,-0.412 0.259,-0.4C0.238,-0.388 0.221,-0.371 0.209,-0.349C0.196,-0.327 0.19,-0.3 0.19,-0.269C0.19,-0.238 0.196,-0.211 0.209,-0.189C0.221,-0.167 0.238,-0.15 0.259,-0.138C0.281,-0.126 0.305,-0.12 0.331,-0.12C0.355,-0.12 0.378,-0.126 0.399,-0.138C0.42,-0.149 0.438,-0.168 0.452,-0.194L0.573,-0.128C0.553,-0.085 0.522,-0.052 0.48,-0.028C0.438,-0.004 0.389,0.008 0.332,0.008Z" style="fill:rgb(124,41,125);fill-rule:nonzero;"/>
        </g>
        <g transform="matrix(12,0,0,12,675.753365,621.776042)">
            <path d="M0.072,-0L0.072,-0.742L0.228,-0.742L0.228,-0.389L0.193,-0.434C0.212,-0.47 0.24,-0.498 0.276,-0.517C0.312,-0.536 0.353,-0.546 0.399,-0.546C0.441,-0.546 0.48,-0.537 0.513,-0.52C0.547,-0.504 0.573,-0.478 0.593,-0.443C0.612,-0.408 0.622,-0.363 0.622,-0.308L0.622,-0L0.466,-0L0.466,-0.284C0.466,-0.328 0.456,-0.36 0.437,-0.38C0.418,-0.401 0.392,-0.411 0.357,-0.411C0.332,-0.411 0.31,-0.406 0.29,-0.395C0.271,-0.385 0.256,-0.369 0.245,-0.348C0.234,-0.327 0.228,-0.299 0.228,-0.266L0.228,-0L0.072,-0Z" style="fill:rgb(124,41,125);fill-rule:nonzero;"/>
        </g>
        <g transform="matrix(12,0,0,12,684.087789,621.776042)">
            <path d="M0.339,0.008C0.277,0.008 0.224,-0.004 0.177,-0.028C0.131,-0.052 0.096,-0.085 0.07,-0.127C0.045,-0.168 0.032,-0.216 0.032,-0.269C0.032,-0.323 0.045,-0.371 0.07,-0.412C0.094,-0.454 0.129,-0.487 0.172,-0.51C0.215,-0.534 0.264,-0.546 0.319,-0.546C0.372,-0.546 0.419,-0.534 0.461,-0.512C0.504,-0.49 0.537,-0.458 0.562,-0.416C0.586,-0.375 0.599,-0.325 0.599,-0.267C0.599,-0.261 0.599,-0.254 0.598,-0.246C0.598,-0.239 0.597,-0.232 0.596,-0.225L0.159,-0.225L0.159,-0.316L0.514,-0.316L0.454,-0.289C0.454,-0.317 0.448,-0.341 0.437,-0.362C0.425,-0.383 0.41,-0.399 0.39,-0.411C0.37,-0.422 0.346,-0.428 0.32,-0.428C0.293,-0.428 0.27,-0.422 0.249,-0.411C0.229,-0.399 0.213,-0.383 0.202,-0.362C0.191,-0.341 0.185,-0.316 0.185,-0.287L0.185,-0.263C0.185,-0.233 0.192,-0.208 0.205,-0.186C0.218,-0.163 0.236,-0.146 0.26,-0.135C0.284,-0.123 0.311,-0.117 0.343,-0.117C0.372,-0.117 0.397,-0.121 0.418,-0.13C0.44,-0.138 0.46,-0.151 0.478,-0.169L0.561,-0.079C0.536,-0.051 0.505,-0.029 0.468,-0.015C0.431,0 0.388,0.008 0.339,0.008Z" style="fill:rgb(124,41,125);fill-rule:nonzero;"/>
        </g>
        <g transform="matrix(12,0,0,12,691.663119,621.776042)">
        </g>
        <g transform="matrix(12,0,0,12,643.885418,636.404042)">
            <path d="M0.418,0.012C0.364,0.012 0.314,0.003 0.267,-0.015C0.221,-0.032 0.181,-0.057 0.147,-0.09C0.113,-0.122 0.087,-0.161 0.068,-0.205C0.049,-0.249 0.039,-0.297 0.039,-0.35C0.039,-0.403 0.049,-0.451 0.068,-0.495C0.087,-0.539 0.113,-0.578 0.147,-0.61C0.182,-0.643 0.222,-0.668 0.268,-0.685C0.314,-0.703 0.365,-0.712 0.419,-0.712C0.48,-0.712 0.535,-0.701 0.584,-0.68C0.633,-0.659 0.674,-0.629 0.707,-0.588L0.603,-0.492C0.579,-0.519 0.553,-0.54 0.523,-0.554C0.494,-0.568 0.462,-0.574 0.427,-0.574C0.394,-0.574 0.364,-0.569 0.337,-0.558C0.31,-0.547 0.286,-0.532 0.266,-0.512C0.246,-0.492 0.231,-0.468 0.22,-0.441C0.209,-0.413 0.203,-0.383 0.203,-0.35C0.203,-0.317 0.209,-0.287 0.22,-0.259C0.231,-0.232 0.246,-0.208 0.266,-0.188C0.286,-0.168 0.31,-0.153 0.337,-0.142C0.364,-0.131 0.394,-0.126 0.427,-0.126C0.462,-0.126 0.494,-0.132 0.523,-0.146C0.553,-0.16 0.579,-0.181 0.603,-0.209L0.707,-0.113C0.674,-0.072 0.633,-0.042 0.584,-0.02C0.535,0.001 0.479,0.012 0.418,0.012Z" style="fill:rgb(124,41,125);fill-rule:nonzero;"/>
        </g>
        <g transform="matrix(12,0,0,12,652.34212,636.404042)">
            <path d="M0.328,0.008C0.271,0.008 0.22,-0.004 0.176,-0.028C0.131,-0.052 0.096,-0.084 0.071,-0.126C0.045,-0.168 0.032,-0.216 0.032,-0.269C0.032,-0.323 0.045,-0.371 0.071,-0.413C0.096,-0.454 0.131,-0.487 0.176,-0.51C0.22,-0.534 0.27,-0.546 0.328,-0.546C0.385,-0.546 0.436,-0.534 0.48,-0.51C0.525,-0.487 0.559,-0.454 0.585,-0.413C0.61,-0.371 0.623,-0.323 0.623,-0.269C0.623,-0.215 0.61,-0.168 0.585,-0.126C0.56,-0.084 0.525,-0.052 0.48,-0.028C0.435,-0.004 0.385,0.008 0.328,0.008ZM0.328,-0.12C0.354,-0.12 0.377,-0.126 0.398,-0.138C0.418,-0.15 0.435,-0.167 0.447,-0.189C0.459,-0.212 0.465,-0.239 0.465,-0.269C0.465,-0.3 0.459,-0.327 0.447,-0.349C0.435,-0.371 0.418,-0.388 0.398,-0.4C0.377,-0.412 0.354,-0.418 0.328,-0.418C0.302,-0.418 0.278,-0.412 0.258,-0.4C0.237,-0.388 0.221,-0.371 0.209,-0.349C0.196,-0.327 0.19,-0.3 0.19,-0.269C0.19,-0.239 0.196,-0.212 0.209,-0.189C0.221,-0.167 0.237,-0.15 0.258,-0.138C0.278,-0.126 0.302,-0.12 0.328,-0.12Z" style="fill:rgb(124,41,125);fill-rule:nonzero;"/>
        </g>
        <g transform="matrix(12,0,0,12,660.202968,636.404042)">
            <path d="M0.072,-0L0.072,-0.538L0.221,-0.538L0.221,-0.391L0.193,-0.434C0.211,-0.471 0.238,-0.498 0.272,-0.517C0.307,-0.536 0.346,-0.546 0.39,-0.546C0.439,-0.546 0.482,-0.533 0.519,-0.508C0.556,-0.484 0.581,-0.445 0.593,-0.394L0.538,-0.409C0.556,-0.451 0.585,-0.484 0.624,-0.509C0.664,-0.533 0.709,-0.546 0.761,-0.546C0.804,-0.546 0.842,-0.537 0.875,-0.52C0.908,-0.504 0.934,-0.478 0.952,-0.443C0.971,-0.408 0.981,-0.363 0.981,-0.308L0.981,-0L0.825,-0L0.825,-0.284C0.825,-0.328 0.816,-0.36 0.798,-0.38C0.78,-0.401 0.755,-0.411 0.723,-0.411C0.7,-0.411 0.679,-0.406 0.661,-0.396C0.643,-0.385 0.629,-0.37 0.619,-0.349C0.609,-0.329 0.604,-0.302 0.604,-0.27L0.604,-0L0.448,-0L0.448,-0.284C0.448,-0.328 0.44,-0.36 0.422,-0.38C0.404,-0.401 0.379,-0.411 0.346,-0.411C0.323,-0.411 0.303,-0.406 0.285,-0.396C0.267,-0.385 0.253,-0.37 0.243,-0.349C0.233,-0.329 0.228,-0.302 0.228,-0.27L0.228,-0L0.072,-0Z" style="fill:rgb(124,41,125);fill-rule:nonzero;"/>
        </g>
        <g transform="matrix(12,0,0,12,672.79158,636.404042)">
            <path d="M0.072,-0L0.072,-0.538L0.221,-0.538L0.221,-0.391L0.193,-0.434C0.211,-0.471 0.238,-0.498 0.272,-0.517C0.307,-0.536 0.346,-0.546 0.39,-0.546C0.439,-0.546 0.482,-0.533 0.519,-0.508C0.556,-0.484 0.581,-0.445 0.593,-0.394L0.538,-0.409C0.556,-0.451 0.585,-0.484 0.624,-0.509C0.664,-0.533 0.709,-0.546 0.761,-0.546C0.804,-0.546 0.842,-0.537 0.875,-0.52C0.908,-0.504 0.934,-0.478 0.952,-0.443C0.971,-0.408 0.981,-0.363 0.981,-0.308L0.981,-0L0.825,-0L0.825,-0.284C0.825,-0.328 0.816,-0.36 0.798,-0.38C0.78,-0.401 0.755,-0.411 0.723,-0.411C0.7,-0.411 0.679,-0.406 0.661,-0.396C0.643,-0.385 0.629,-0.37 0.619,-0.349C0.609,-0.329 0.604,-0.302 0.604,-0.27L0.604,-0L0.448,-0L0.448,-0.284C0.448,-0.328 0.44,-0.36 0.422,-0.38C0.404,-0.401 0.379,-0.411 0.346,-0.411C0.323,-0.411 0.303,-0.406 0.285,-0.396C0.267,-0.385 0.253,-0.37 0.243,-0.349C0.233,-0.329 0.228,-0.302 0.228,-0.27L0.228,-0L0.072,-0Z" style="fill:rgb(124,41,125);fill-rule:nonzero;"/>
        </g>
        <g transform="matrix(12,0,0,12,685.428193,636.404042)">
            <path d="M0.328,0.008C0.271,0.008 0.22,-0.004 0.176,-0.028C0.131,-0.052 0.096,-0.084 0.071,-0.126C0.045,-0.168 0.032,-0.216 0.032,-0.269C0.032,-0.323 0.045,-0.371 0.071,-0.413C0.096,-0.454 0.131,-0.487 0.176,-0.51C0.22,-0.534 0.27,-0.546 0.328,-0.546C0.385,-0.546 0.436,-0.534 0.48,-0.51C0.525,-0.487 0.559,-0.454 0.585,-0.413C0.61,-0.371 0.623,-0.323 0.623,-0.269C0.623,-0.215 0.61,-0.168 0.585,-0.126C0.56,-0.084 0.525,-0.052 0.48,-0.028C0.435,-0.004 0.385,0.008 0.328,0.008ZM0.328,-0.12C0.354,-0.12 0.377,-0.126 0.398,-0.138C0.418,-0.15 0.435,-0.167 0.447,-0.189C0.459,-0.212 0.465,-0.239 0.465,-0.269C0.465,-0.3 0.459,-0.327 0.447,-0.349C0.435,-0.371 0.418,-0.388 0.398,-0.4C0.377,-0.412 0.354,-0.418 0.328,-0.418C0.302,-0.418 0.278,-0.412 0.258,-0.4C0.237,-0.388 0.221,-0.371 0.209,-0.349C0.196,-0.327 0.19,-0.3 0.19,-0.269C0.19,-0.239 0.196,-0.212 0.209,-0.189C0.221,-0.167 0.237,-0.15 0.258,-0.138C0.278,-0.126 0.302,-0.12 0.328,-0.12Z" style="fill:rgb(124,41,125);fill-rule:nonzero;"/>
        </g>
        <g transform="matrix(12,0,0,12,693.289041,636.404042)">
            <path d="M0.072,-0L0.072,-0.538L0.221,-0.538L0.221,-0.389L0.193,-0.434C0.212,-0.47 0.24,-0.498 0.276,-0.517C0.312,-0.536 0.353,-0.546 0.399,-0.546C0.441,-0.546 0.48,-0.537 0.513,-0.52C0.547,-0.504 0.573,-0.478 0.593,-0.443C0.612,-0.408 0.622,-0.363 0.622,-0.308L0.622,-0L0.466,-0L0.466,-0.284C0.466,-0.328 0.456,-0.36 0.437,-0.38C0.418,-0.401 0.392,-0.411 0.357,-0.411C0.332,-0.411 0.31,-0.406 0.29,-0.395C0.271,-0.385 0.256,-0.369 0.245,-0.348C0.234,-0.327 0.228,-0.299 0.228,-0.266L0.228,-0L0.072,-0Z" style="fill:rgb(124,41,125);fill-rule:nonzero;"/>
        </g>
        <g transform="matrix(12,0,0,12,701.575465,636.404042)">
            <path d="M0.253,0.008C0.207,0.008 0.163,0.002 0.121,-0.009C0.079,-0.02 0.045,-0.034 0.02,-0.05L0.072,-0.162C0.096,-0.146 0.125,-0.134 0.159,-0.124C0.193,-0.115 0.226,-0.11 0.259,-0.11C0.295,-0.11 0.321,-0.115 0.336,-0.123C0.351,-0.132 0.358,-0.144 0.358,-0.159C0.358,-0.172 0.352,-0.181 0.341,-0.188C0.329,-0.194 0.313,-0.199 0.294,-0.202C0.275,-0.206 0.254,-0.209 0.231,-0.212C0.207,-0.215 0.184,-0.22 0.161,-0.226C0.138,-0.232 0.116,-0.24 0.097,-0.251C0.078,-0.262 0.062,-0.278 0.051,-0.297C0.039,-0.316 0.033,-0.341 0.033,-0.372C0.033,-0.406 0.043,-0.436 0.063,-0.462C0.083,-0.488 0.111,-0.509 0.148,-0.523C0.185,-0.538 0.23,-0.546 0.282,-0.546C0.319,-0.546 0.356,-0.542 0.394,-0.534C0.432,-0.526 0.464,-0.514 0.489,-0.499L0.437,-0.388C0.411,-0.403 0.385,-0.414 0.358,-0.419C0.332,-0.425 0.307,-0.428 0.282,-0.428C0.247,-0.428 0.222,-0.423 0.206,-0.414C0.19,-0.404 0.182,-0.393 0.182,-0.378C0.182,-0.365 0.188,-0.355 0.199,-0.348C0.211,-0.341 0.227,-0.336 0.246,-0.332C0.265,-0.328 0.286,-0.325 0.309,-0.322C0.333,-0.318 0.356,-0.314 0.379,-0.308C0.402,-0.302 0.423,-0.294 0.442,-0.283C0.462,-0.272 0.477,-0.257 0.489,-0.237C0.501,-0.218 0.507,-0.193 0.507,-0.163C0.507,-0.13 0.497,-0.1 0.477,-0.075C0.457,-0.049 0.428,-0.029 0.39,-0.014C0.353,0 0.307,0.008 0.253,0.008Z" style="fill:rgb(124,41,125);fill-rule:nonzero;"/>
        </g>
        <g transform="matrix(12,0,0,12,707.942737,636.404042)">
        </g>
    </g>
</svg>
